<?xml version='1.0' encoding='utf-8'?>
<svg xmlns="http://www.w3.org/2000/svg" data-name="Ebene 1" viewBox="0 0 800 800">
  <defs>
    <clipPath id="a">
      <circle cx="400" cy="400" r="400" fill="none"/>
    </clipPath>
    <linearGradient id="b" x1="413.33" x2="152.5" y1="386.67" y2="647.5" gradientUnits="userSpaceOnUse">
      <stop offset="0"/>
      <stop stop-opacity="0" offset="1"/>
    </linearGradient>
  </defs>
  <circle cx="400" cy="400" r="400" fill="#1c8adb"/>
  <g clip-path="url(#a)">
    <path d="m303.92 792.67 299.37-299.37a17.185 17.185 0 0 0 5.423-12.535v-23.157l41.866-41.88a17.185 17.185 0 0 0 5.4232-12.535v-6.3892a17.251 17.251 0 0 0-17.251-17.251h-17.911a5.7146 5.7146 0 0 0-4.3875 2.0483l-7.7394 7.7356v-70.105a17.251 17.251 0 0 0-17.251-17.251h-6.3892a17.185 17.185 0 0 0-12.535 5.4234l-11.114 11.094v-25.726a17.251 17.251 0 0 0-17.251-17.251h-6.3892a17.185 17.185 0 0 0-12.535 5.4233l-100.41 100.41-0.0269 0.0244h-133.09a5.8343 5.8343 0 0 0-4.4727 2.0836l-7.7748 7.7744v-98.466a17.251 17.251 0 0 0-17.251-17.251h-6.3892a17.185 17.185 0 0 0-12.535 5.4231l-22.212 22.186a17.176 17.176 0 0 0-6.1528-1.15h-6.3889a17.185 17.185 0 0 0-12.535 5.4234l-187.8 187.8c45.125 166.97 144.65 264.91 295.71 297.46z" fill="url(#b)" opacity=".42"/>
    <rect transform="translate(-1.8281 801.83) rotate(-90)" x="379.55" y="287.69" width="40.891" height="228.27" rx="5.8493" ry="5.8493" fill="#fff"/>
    <rect x="191.29" y="301.98" width="40.891" height="196.04" rx="17.251" ry="17.251" fill="#fff"/>
    <rect transform="translate(1176.5 800) rotate(180)" x="567.82" y="301.98" width="40.891" height="196.04" rx="17.251" ry="17.251" fill="#fff"/>
    <path d="m161.25 379.55h17.911a5.7287 5.7287 0 0 1 5.7287 5.7287v29.433a5.7287 5.7287 0 0 1-5.7287 5.7287h-17.911a17.251 17.251 0 0 1-17.251-17.251v-6.3892a17.251 17.251 0 0 1 17.251-17.251z" fill="#fff"/>
    <path transform="translate(1271.1 800) rotate(180)" d="m632.36 379.55h17.911a5.7287 5.7287 0 0 1 5.7287 5.7287v29.433a5.7287 5.7287 0 0 1-5.7287 5.7287h-17.911a17.251 17.251 0 0 1-17.251-17.251v-6.3892a17.251 17.251 0 0 1 17.251-17.25z" fill="#fff"/>
    <rect x="238.58" y="275.52" width="40.891" height="248.95" rx="17.251" ry="17.251" fill="#fff"/>
    <rect transform="translate(1082 800) rotate(180)" x="520.53" y="275.52" width="40.891" height="248.95" rx="17.251" ry="17.251" fill="#fff"/>
  </g>
</svg>
